<svg xmlns="http://www.w3.org/2000/svg" viewBox="0 0 32 32">
  <defs>
    <linearGradient id="orange-grad" x1="0%" y1="0%" x2="100%" y2="100%">
      <stop offset="0%" stop-color="#ff8533" />
      <stop offset="100%" stop-color="#ff6600" />
    </linearGradient>
  </defs>
  <!-- Premium rounded square background with brand gradient -->
  <rect x="2" y="2" width="28" height="28" rx="7" fill="url(#orange-grad)" />
  <!-- Minimal document outline and rows -->
  <path d="M10 8h12v16H10z" fill="none" />
  <path d="M11 7c-1.1 0-2 .9-2 2v14c0 1.1.9 2 2 2h10c1.1 0 2-.9 2-2V9c0-1.1-.9-2-2-2H11zm0 4h10v2H11v-2zm0 4h10v2H11v-2zm0 4h10v2H11v-2z" fill="#ffffff" />
</svg>
